<svg width="70" height="62" viewBox="0 0 70 62" fill="none" xmlns="http://www.w3.org/2000/svg">
<path d="M51.0437 23.3343C49.5358 23.3343 48.0745 23.5297 46.6685 23.8652V10.2088C46.6685 8.30997 45.4464 6.70578 43.7518 6.10201V4.37518C43.7518 1.96295 41.7888 0 39.3766 0C38.5716 0 37.9182 0.653405 37.9182 1.45844C37.9182 2.26347 38.5716 2.91688 39.3766 2.91688C40.1816 2.91688 40.8351 3.57028 40.8351 4.37532V6.10201C39.1404 6.70578 37.9183 8.30997 37.9183 10.2088V21.5318L31.9302 9.5584C31.9156 9.52928 31.8806 9.51465 31.8631 9.48552C31.7609 9.31052 31.6268 9.16764 31.4634 9.05088C31.4109 9.01301 31.3672 8.978 31.3118 8.94874C31.1077 8.83212 30.8802 8.75036 30.6264 8.75036H17.5009C16.833 8.75036 16.2467 9.20538 16.0862 9.85577L11.8101 26.9657L0.428768 38.3471C0.154635 38.6183 0 38.9887 0 39.3766V51.0437C0 51.8487 0.653406 52.5021 1.45844 52.5021H5.83362C5.83362 57.3265 9.75966 61.2525 14.584 61.2525C19.4083 61.2525 23.3343 57.3265 23.3343 52.5021C23.3343 52.368 23.2993 52.2425 23.2935 52.1084L30.8625 49.5854H33.546C36.4102 56.4282 43.1714 61.2525 51.0408 61.2525C61.4947 61.2525 70 52.7472 70 42.2933C70 31.8395 61.4975 23.3343 51.0437 23.3343ZM14.584 58.3358C11.3667 58.3358 8.75036 55.7194 8.75036 52.5021C8.75036 52.1055 8.79124 51.7146 8.86698 51.3383L8.86986 51.3325C8.88449 51.2653 8.91074 51.2041 8.92824 51.1371C8.99824 50.8483 9.07986 50.5654 9.19075 50.2942C9.23737 50.1804 9.30163 50.0783 9.35413 49.9675C9.45627 49.7547 9.56414 49.5447 9.69253 49.3463C9.76841 49.2296 9.85591 49.1216 9.93754 49.0138C10.0659 48.8416 10.2 48.6754 10.3459 48.5209C10.4481 48.413 10.5588 48.3109 10.6697 48.2087C10.8185 48.0746 10.9701 47.9462 11.1306 47.8266C11.256 47.7332 11.3872 47.6428 11.5185 47.5612C11.6847 47.4562 11.8626 47.3658 12.0406 47.2783C12.1806 47.2083 12.3206 47.1383 12.4665 47.0829C12.6707 47.0013 12.8865 46.9429 13.1024 46.8846C13.2337 46.8496 13.3591 46.8058 13.4933 46.7795C13.8462 46.7124 14.2109 46.6687 14.5842 46.6687C14.9605 46.6687 15.3252 46.7124 15.6809 46.7795C15.815 46.8058 15.9406 46.8496 16.0688 46.8846C16.2847 46.9429 16.5004 47.0012 16.7047 47.0829C16.8506 47.1413 16.9906 47.2113 17.1306 47.2783C17.3085 47.3658 17.4835 47.4562 17.6528 47.5612C17.7869 47.6458 17.9153 47.7333 18.0406 47.8266C18.201 47.9462 18.3557 48.0745 18.5015 48.2087C18.6124 48.3109 18.7232 48.4129 18.8253 48.5209C18.9712 48.6755 19.1053 48.8446 19.2337 49.0138C19.3153 49.1246 19.4028 49.2296 19.4787 49.3463C19.6071 49.5447 19.715 49.7547 19.8171 49.9704C19.8696 50.0783 19.9337 50.1804 19.9775 50.2942C20.0884 50.5654 20.17 50.8483 20.24 51.1371C20.2546 51.2042 20.2837 51.2655 20.2984 51.3325L20.3012 51.3383C20.38 51.7146 20.4179 52.1055 20.4179 52.5021C20.4175 55.7194 17.8041 58.3358 14.584 58.3358ZM29.1678 26.2511H14.9952L18.6413 11.6671H29.168V26.2511H29.1678ZM32.0847 26.2511V16.3835L37.017 26.2511H32.0847ZM51.0437 58.3358C44.8251 58.3358 39.4349 54.7715 36.7719 49.5854H51.0437C55.066 49.5854 58.3356 46.3128 58.3356 42.2935C58.3356 38.2742 55.0659 35.0016 51.0437 35.0016H36.7719C36.7865 34.9753 36.7953 34.9491 36.8098 34.9228C36.9526 34.6487 37.1073 34.3803 37.2676 34.1149C37.393 33.9049 37.5155 33.692 37.6498 33.4878C37.9007 33.1086 38.1719 32.7411 38.4548 32.3793C38.5132 32.3065 38.5657 32.2247 38.6239 32.1547C39.0031 31.6938 39.4056 31.2534 39.8374 30.8334C39.852 30.8188 39.8665 30.8071 39.8811 30.7925C40.2924 30.3959 40.7299 30.0166 41.1878 29.6608C43.912 27.5345 47.3306 26.2511 51.0436 26.2511C59.8873 26.2511 67.0859 33.4467 67.0859 42.2933C67.0859 51.14 59.8875 58.3358 51.0437 58.3358ZM49.5854 42.2935C49.5854 41.4885 50.2388 40.835 51.0438 40.835C51.8489 40.835 52.5023 41.4885 52.5023 42.2935C52.5023 43.0985 51.8489 43.7519 51.0438 43.7519C50.2387 43.7518 49.5854 43.0985 49.5854 42.2935Z" fill="#414141"/>
</svg>
