<svg width="53" height="49" viewBox="0 0 53 49" fill="none" xmlns="http://www.w3.org/2000/svg">
<path d="M39.0561 44.1046C40.1597 26.4305 46.8606 12.4678 46.8606 12.4678C33.5933 19.9213 31.1742 38.2222 30.7458 45.6899C31.3643 19.1377 39.3293 0.0566406 39.3293 0.0566406C23.7045 13.3458 22.4578 39.3692 22.4353 46.8725C22.1943 40.3751 20.299 20.3523 6.26435 12.4678C6.26435 12.4678 13.444 27.4276 14.1638 45.9788C13.7648 40.987 11.4895 31.1081 0 27.6265C0 27.6265 5.96519 34.7321 5.96519 48.9433H47.0348C47.0348 34.7321 53 27.6265 53 27.6265C42.8153 30.7127 39.8716 38.8248 39.0561 44.1046Z" fill="#414141"/>
</svg>
