<svg width="53" height="53" viewBox="0 0 53 53" fill="none" xmlns="http://www.w3.org/2000/svg">
<path d="M14.1964 13.4793V14.1965C14.1943 14.903 13.9925 15.5946 13.6145 16.1915L14.7297 17.5524C15.1798 18.2799 16.0555 18.6238 16.8804 18.3972L21.3372 17.1199C21.3981 17.1032 21.458 17.0829 21.5164 17.0589L21.6061 17.0257L26.9418 14.7373C27.4009 14.5402 27.763 14.1689 27.9483 13.7049L28.8485 11.4507C29.0822 10.8729 29.0143 10.2169 28.6673 9.69918L28.4436 9.35996C28.0929 8.83317 27.5016 8.51714 26.8687 8.51807H18.2733C18.1402 8.71703 17.9881 8.90273 17.8195 9.0726L14.751 12.141C14.3973 12.4968 14.198 12.9776 14.1964 13.4793Z" fill="#414141"/>
<path d="M8.35795 16.0893H10.4107C11.4556 16.088 12.3022 15.2413 12.3036 14.1964V13.4792C12.3062 12.4757 12.7048 11.5138 13.4126 10.8026L16.4811 7.73404C16.8348 7.37826 17.0341 6.89743 17.0357 6.39569V3.78564H3.78567V13.6605L7.38377 15.8193C7.67806 15.9959 8.0148 16.0892 8.35795 16.0893Z" fill="#414141"/>
<path d="M7.76181 38.4616L15.2824 33.1971C15.7876 32.8426 16.0886 32.2643 16.0893 31.6472V29.3393C16.088 28.9296 15.9552 28.5311 15.7104 28.2025L13.9368 25.8379L11.7796 27.5638C11.1077 28.0998 10.2739 28.392 9.41444 28.3929H3.78567V38.8035H6.67676C7.06504 38.804 7.44402 38.6846 7.76181 38.4616Z" fill="#414141"/>
<path d="M10.5965 26.0859L13.4856 23.7734C13.936 23.4158 14.1979 22.8716 14.1963 22.2965V19.8749C14.2022 19.8179 14.2136 19.7615 14.2303 19.7066C13.8271 19.4324 13.4806 19.0828 13.2101 18.6771L12.2357 17.4925C11.6793 17.8093 11.0508 17.9778 10.4106 17.982H8.35785C7.67144 17.9821 6.99807 17.7955 6.40958 17.4423L3.78567 15.8679V26.4999H9.41433C9.84392 26.4997 10.2607 26.3538 10.5965 26.0859Z" fill="#414141"/>
<path d="M14.751 38.0199C15.2719 38.5413 15.628 39.2044 15.7751 39.9265L19.6154 41.4073C19.9027 41.5571 20.2212 41.6377 20.5452 41.643H25.6913C26.409 41.6455 27.0657 41.2397 27.3845 40.5967L29.1396 37.0874C29.2705 36.8242 29.3388 36.5346 29.3393 36.2407V34.3007C29.3378 33.7991 29.1385 33.3181 28.7848 32.9624L27.0051 31.1826C26.7372 31.2692 26.4606 31.3257 26.1802 31.3515L17.9547 32.0992C17.8257 33.1675 17.2487 34.1305 16.3675 34.7481L13.492 36.761L14.751 38.0199Z" fill="#414141"/>
<path d="M13.4126 42.0346C14.1502 41.2948 14.1502 40.0977 13.4126 39.358L11.9174 37.8628L8.84676 40.0123C8.21117 40.4584 7.45323 40.6973 6.67665 40.6962H3.78567V49.2141H13.8045L13.4126 48.8222C12.7048 48.1109 12.3062 47.1491 12.3036 46.1456V44.7112C12.3062 43.7078 12.7048 42.7459 13.4126 42.0346Z" fill="#414141"/>
<path d="M30.0223 8.31431L30.2442 8.65074C30.9368 9.68703 31.0721 10.9988 30.6055 12.1545L29.7071 14.4051C29.4213 15.115 28.927 15.7215 28.2895 16.1446L31.1211 18.0327C31.4897 18.2811 31.8115 18.5926 32.0718 18.9528C32.1351 18.9391 32.1997 18.9321 32.2644 18.932L40.7453 19.7028C41.5227 19.7813 42.2668 19.367 42.6095 18.6648L44.056 15.7711C44.2815 15.3222 44.3185 14.8017 44.1585 14.3256L43.5763 12.5777C42.997 10.8347 42.0834 9.22142 40.8867 7.828L37.4225 3.7854H33.5168L29.5527 7.74953C29.7272 7.9223 29.8844 8.11142 30.0223 8.31431Z" fill="#414141"/>
<path d="M36.0336 36.4515C36.74 36.7555 37.5011 36.9118 38.2702 36.9109H39.8877C40.6053 36.9133 41.2621 36.5076 41.5809 35.8646L44.3663 30.2939C44.2285 30.15 44.1022 29.9957 43.9886 29.832L43.1059 28.5076C42.7929 28.0367 42.5884 27.5023 42.5069 26.9428L41.7311 21.5092C41.4668 21.5697 41.1967 21.6016 40.9256 21.6044C40.8092 21.6044 40.6918 21.5988 40.5735 21.5887L32.7919 20.8813C32.8209 21.2303 32.8013 21.5815 32.734 21.9251L32.2701 24.2422C32.1731 24.7266 31.9825 25.1875 31.709 25.599L28.9871 29.6814C28.8755 29.8367 28.7523 29.9833 28.6186 30.1198L30.123 31.6241C30.8309 32.3354 31.2294 33.2972 31.2321 34.3007V34.3941L36.0336 36.4515Z" fill="#414141"/>
<path d="M26.0083 29.4659C26.579 29.416 27.0957 29.1087 27.4123 28.6312L30.1333 24.5497C30.2703 24.3437 30.3657 24.113 30.4142 23.8703L30.8782 21.5532C31.0303 20.801 30.7112 20.0315 30.0713 19.6076L26.2796 17.0796L22.3011 18.785C22.2891 18.7906 22.1976 18.8248 22.1846 18.8303C22.0682 18.8755 21.9495 18.9144 21.8288 18.9468L17.4007 20.2167C17.0602 20.3145 16.7077 20.3639 16.3535 20.3637C16.2647 20.3637 16.1772 20.3537 16.0891 20.3475V22.2963C16.0876 23.1085 15.8227 23.8985 15.3344 24.5475L17.225 27.0681C17.7144 27.7243 17.9797 28.5204 17.9819 29.339V30.1953L26.0083 29.4659Z" fill="#414141"/>
<path d="M27.8645 6.7613L30.8402 3.78564H18.9286V6.39569C18.9286 6.47291 18.9103 6.54806 18.9056 6.62487H26.8687C27.2053 6.62591 27.5402 6.67176 27.8645 6.7613Z" fill="#414141"/>
<path d="M45.9718 31.3157L43.2741 36.711C43.1189 37.021 42.9221 37.3084 42.6893 37.5653L46.2123 41.0883C46.5681 41.442 47.0489 41.6413 47.5506 41.6428H49.2142V32.008L46.3962 31.4447C46.2523 31.41 46.1106 31.3669 45.9718 31.3157Z" fill="#414141"/>
<path d="M42.3231 6.5963C43.6799 8.17502 44.7153 10.0035 45.3712 11.9791L45.9544 13.7278C46 13.8815 46.0357 14.038 46.0615 14.1964H49.2143V3.78564H39.9141L42.3231 6.5963Z" fill="#414141"/>
<path d="M45.7492 16.6171L44.3028 19.5118C44.0984 19.9156 43.8233 20.2797 43.4907 20.5868C43.5046 20.6196 43.5165 20.6531 43.5265 20.6874L44.3814 26.6746C44.4218 26.9543 44.524 27.2214 44.6809 27.4566L45.5635 28.782C45.8431 29.1991 46.2758 29.4889 46.7678 29.5889L49.2143 30.0779V16.0894H45.9517C45.8974 16.27 45.8298 16.4464 45.7492 16.6171Z" fill="#414141"/>
<path d="M52.0536 0H0.946443C0.423896 0.000310547 0.000310547 0.423896 0 0.946443V52.0536C0.000310547 52.5761 0.423896 52.9996 0.946443 53H52.0536C52.5761 52.9997 52.9996 52.5761 53 52.0536V0.946443C52.9997 0.423896 52.5761 0.000310547 52.0536 0ZM51.1071 50.1607C51.1072 50.4117 51.0076 50.6526 50.8301 50.83C50.6526 51.0075 50.4118 51.1072 50.1608 51.107H2.83933C2.5883 51.1071 2.34742 51.0075 2.16989 50.83C1.99237 50.6525 1.89268 50.4117 1.89289 50.1607V2.83933C1.89278 2.5883 1.99237 2.34742 2.16989 2.16989C2.34742 1.99237 2.5882 1.89268 2.83933 1.89289H50.1608C50.4118 1.89278 50.6527 1.99237 50.8301 2.16989C51.0076 2.34742 51.1073 2.5882 51.1071 2.83933V50.1607Z" fill="#414141"/>
<path d="M26.7809 43.375C26.4274 43.4811 26.0604 43.5352 25.6912 43.5358H20.5451C19.9577 43.5351 19.3784 43.3985 18.8528 43.1365L15.6458 41.9033C15.4659 42.4562 15.1594 42.9594 14.751 43.3731C14.3973 43.7289 14.198 44.2098 14.1964 44.7115V46.1459C14.198 46.6475 14.3973 47.1285 14.751 47.4843L16.4811 49.2144H26.0272L28.234 46.2722C28.2285 46.2615 28.2199 46.2527 28.2145 46.2421L26.7809 43.375Z" fill="#414141"/>
<path d="M28.3929 49.2143H31.3732L29.5105 47.7236L28.3929 49.2143Z" fill="#414141"/>
<path d="M46.9378 43.4744L43.3503 49.2143H49.2142V43.5358H47.5506C47.345 43.5322 47.1401 43.5117 46.9378 43.4744Z" fill="#414141"/>
<path d="M44.874 42.4267L41.0603 38.6129C40.6818 38.7376 40.2861 38.802 39.8877 38.8036H38.2702C37.2447 38.805 36.2296 38.5965 35.2876 38.1908L31.2084 36.4426C31.1863 36.9598 31.0584 37.467 30.8327 37.9329L29.0776 41.4433C28.9025 41.7904 28.6751 42.1087 28.4033 42.3868L29.9067 45.3943C30.0297 45.6385 30.2036 45.8535 30.4169 46.0247L34.4041 49.2143H41.1185L45.1961 42.6901C45.0838 42.6085 44.9763 42.5205 44.874 42.4267Z" fill="#414141"/>
</svg>
