<svg width="55" height="51" viewBox="0 0 55 51" fill="none" xmlns="http://www.w3.org/2000/svg">
<path d="M44.0453 29.7031L40.3434 35.4422L37.8922 34.4532L29.3499 50.0345H39.3855L43.783 44.205H47.5586L51.5985 50.0345H55L47.2136 30.5619L44.0453 29.7031Z" fill="white"/>
<path d="M47.0504 45.1765H44.2678L40.6029 50.0344H50.417L47.0504 45.1765Z" fill="white"/>
<path d="M3.89999 40.7084L1.0134 50.0347H5.0212L8.22743 40.7462L9.14269 33.5175H12.1964L14.9441 41.0085L13.2652 50.0347H17.1545L19.0666 39.8116L17.1545 34.4231L16.4598 31.9854L26.9822 37.9472L25.0079 41.3749L29.5928 44.0166L34.4429 35.5979L29.858 32.9561L27.9527 36.2634L15.701 29.3223L15.0403 27.0021L16.2422 22.1334L16.7601 26.5834L17.5918 28.7432L20.8739 30.6621L19.5127 25.8255L18.4604 16.5332L15.0598 16.3933L14.4623 14.7493C16.7407 14.2839 18.4556 12.3204 18.5819 9.93601L8.34519 8.57867C8.27041 8.9284 8.22764 9.29082 8.22764 9.663C8.22764 11.4595 9.14096 13.0422 10.5284 13.974L10.438 13.9642L8.38898 15.6868L5.76372 15.4663L0 20.5051V28.1739L4.5782 29.3049L3.89999 40.7084ZM2.91483 25.3883V23.0983L4.85802 21.3231V25.8255L2.91483 25.3883Z" fill="white"/>
<path d="M18.5371 8.94981L20.0926 9.15576C20.2996 4.53194 18.2904 1.50636 14.6526 1.02445C14.3543 0.984616 14.0589 0.96521 13.7665 0.96521C10.5447 0.96521 8.2002 3.32325 7.2821 7.45734L8.63751 7.63708L18.5371 8.94981Z" fill="white"/>
</svg>
