<svg width="33" height="55" viewBox="0 0 33 55" fill="none" xmlns="http://www.w3.org/2000/svg">
<path d="M12.0808 24.7024L12.8836 30.3316C13.1804 30.2261 14.0907 29.9099 15.3269 29.5443C12.9594 26.0191 12.013 22.3837 11.6387 19.898C11.4893 18.9065 11.4164 18.0237 11.3851 17.29C10.0224 19.7112 6.76852 24.621 2.72812 24.7702C1.38324 24.8198 0.333396 25.9503 0.382973 27.295C0.427948 28.5122 1.35816 29.4877 2.53154 29.6253C2.65451 29.6397 2.78034 29.6451 2.90779 29.6404C6.11621 29.5218 9.26344 27.8207 12.0808 24.7024Z" fill="white"/>
<path d="M19.9438 19.7867C16.8759 19.5877 13.8043 21.0111 13.0618 21.3827C13.3079 22.4672 13.651 23.6328 14.1279 24.8324C15.1816 24.3316 17.7987 23.2437 20.5848 23.2792C20.2753 22.1074 20.0691 20.9185 19.9438 19.7867Z" fill="white"/>
<path d="M6.66938 10.2246C6.77969 10.2434 6.89553 10.2429 7.01193 10.2203L8.70764 9.89462C9.11541 12.1371 10.7429 14.0083 12.9507 14.6983C12.832 14.8575 12.6557 15.1146 12.4785 15.3832C12.444 16.2375 12.4431 18.1271 12.9 20.496C13.9142 20.0028 16.832 18.7424 19.8699 18.9023C19.671 16.457 19.8435 14.3795 20.1406 13.4903C19.765 13.3041 19.4656 13.173 19.2627 13.0896C20.1757 12.1467 20.7988 10.9093 20.9635 9.50491C21.054 8.73182 20.9968 7.97587 20.8164 7.26363C20.8267 7.24638 20.8364 7.22878 20.8452 7.21026C21.0003 6.87876 20.8362 6.58233 20.6776 6.29569C20.5282 6.02561 20.3237 5.6558 20.2136 5.08297C19.6635 2.22055 16.579 0.398769 13.3379 1.02163C10.0966 1.64462 7.90718 4.47989 8.45712 7.3422C8.50324 7.58237 8.58721 7.97645 8.58721 7.97645L6.64672 8.34948C6.13026 8.45058 5.79323 8.95095 5.89422 9.46776C5.9721 9.86782 6.28991 10.1602 6.66938 10.2246Z" fill="white"/>
<path d="M22.5803 28.1646C21.8078 27.0028 21.2289 25.6651 20.804 24.2788C18.0887 24.1808 15.4226 25.2962 14.4233 25.769C14.9459 26.9628 15.6046 28.1802 16.4348 29.3761C18.4768 28.8152 20.3676 28.2368 22.5803 28.1646Z" fill="white"/>
<path d="M32.4445 27.5891C29.8767 21.154 25.986 17.3769 23.0628 15.2996V0H21.6468V14.3711C21.491 14.2774 21.3392 14.1879 21.1945 14.1055C21.0285 16.1567 20.2193 22.2097 23.8534 27.9482C23.8702 27.9492 24.5885 27.9505 24.6048 27.9514L23.8361 22.5629C25.5098 24.5013 26.8771 26.7877 27.9174 29.3951C28.2608 30.2555 29.0394 30.8122 29.8992 30.9129C30.2882 30.9584 30.6943 30.9105 31.0837 30.7552C32.3344 30.2567 32.9433 28.8392 32.4445 27.5891Z" fill="white"/>
<path d="M17.4651 36.2496C16.4645 33.7148 12.9772 32.8792 12.4015 32.7578C9.05225 35.2088 8.71235 36.0069 8.49357 36.5239C7.8554 38.0323 7.23208 41.808 8.13043 46.0277C8.41926 47.3843 9.61714 48.3139 10.9506 48.3137C11.1496 48.3137 11.352 48.2928 11.5544 48.2498C13.1136 47.9177 14.1084 46.3849 13.7766 44.8257C13.201 42.1219 13.5335 39.8827 13.7308 39.0565C14.3622 38.4782 15.9156 37.3262 17.4651 36.2496Z" fill="white"/>
<path d="M24.8154 33.6458C24.84 33.4678 24.8558 33.2877 24.8638 33.106C24.0039 33.1852 20.5081 33.6577 19.3601 36.1415C20.0583 40.6762 21.253 48.6932 21.5523 52.349C21.6759 53.8576 22.9385 55.0001 24.4258 55.0001C24.5048 55.0001 24.5844 54.9968 24.6644 54.9903C26.2532 54.8602 27.4358 53.4668 27.3057 51.8778C26.9472 47.4971 25.4401 37.6396 24.8154 33.6458Z" fill="white"/>
<path d="M24.9715 31.7839C24.9617 31.6417 24.947 31.4987 24.9264 31.3553L24.6311 29.2898L24.5227 29.2812C24.279 29.2619 24.0169 29.2523 23.7432 29.2523C19.5472 29.2523 13.2989 31.4948 13.2363 31.5175L13.1402 31.5523L13.1665 31.737C14.2627 32.006 17.282 32.9543 18.3485 35.4219C18.5644 35.2743 18.778 35.1297 18.9869 34.9899C20.4044 32.3007 24.1158 31.8521 24.9715 31.7839Z" fill="white"/>
</svg>
