<svg width="49" height="55" viewBox="0 0 49 55" fill="none" xmlns="http://www.w3.org/2000/svg">
<path d="M24.5035 11.6219C27.4282 11.6219 29.8026 8.22718 29.8026 5.3017C29.8026 2.37379 27.4282 0.000976585 24.5035 0.000976585C21.5753 0.00070765 19.2009 2.37514 19.2009 5.30143C19.2009 8.22718 21.5753 11.6219 24.5035 11.6219Z" fill="white"/>
<path d="M48.3204 30.7737L48.3468 30.7589L43.5111 21.1854C44.1578 21.0044 44.7097 20.5246 44.9375 19.8409C45.3059 18.7421 44.7097 17.5547 43.6143 17.1879L33.5529 13.8343C33.0976 13.6713 29.0299 12.2548 25.2813 12.0695L24.7821 13.0675H24.7689L26.1806 24.0614L24.5038 26.9911L22.827 24.0614L24.2394 13.0675H24.2235L23.7257 12.0695C19.9797 12.2545 15.911 13.671 15.4533 13.8343L5.39348 17.1882C4.29703 17.5534 3.70188 18.7405 4.0687 19.8412C4.2973 20.5265 4.85077 21.0062 5.49917 21.1872L0.652685 30.7737L0.67151 30.7834C0.556137 30.9797 0.476532 31.1863 0.476532 31.4157C0.476532 34.4974 2.97548 36.9966 6.05721 36.9966C9.13921 36.9966 11.6382 34.4974 11.6382 31.4157C11.6382 31.1814 11.554 30.9703 11.4351 30.7737L11.4623 30.7589L6.62251 21.1821C6.65613 21.1738 6.68813 21.1773 6.72148 21.1673L16.7829 17.8137C16.7928 17.8105 16.8001 17.8016 16.8082 17.7981C16.8162 17.7965 16.8246 17.7981 16.8335 17.7949C16.8515 17.7898 17.5711 17.5335 18.6356 17.2315V31.5399L16.9668 52.2832C16.8563 53.6685 17.888 54.8822 19.2724 54.9916C19.3413 54.9967 19.4082 54.9997 19.4771 54.9997C20.7734 54.9997 21.8752 54.0025 21.9809 52.6858L23.4883 33.9369C23.8002 34.0746 24.1426 34.1532 24.5027 34.1532C24.8628 34.1532 25.2068 34.0746 25.5168 33.9369L27.0242 52.6858C27.1291 54.0025 28.2328 54.9997 29.5283 54.9997C29.5971 54.9997 29.6641 54.9981 29.7329 54.9916C31.1182 54.8822 32.1499 53.6669 32.0385 52.2832L30.3701 31.5399V17.2315C31.4361 17.5335 32.1534 17.7898 32.173 17.7949C32.1811 17.7981 32.1894 17.7965 32.1994 17.7981C32.209 17.8016 32.2158 17.8089 32.2222 17.8121L42.2834 21.166C42.3178 21.1759 42.3522 21.1724 42.385 21.1824L37.538 30.774L37.5557 30.7837C37.4393 30.98 37.3608 31.1865 37.3608 31.4159C37.3608 34.4977 39.8597 36.9969 42.9417 36.9969C46.0237 36.9969 48.5227 34.4977 48.5227 31.4159C48.5235 31.1812 48.4385 30.97 48.3204 30.7737ZM10.0049 29.7321C7.89081 28.9035 4.23813 28.9 2.11811 29.7289L6.06232 21.9322L10.0049 29.7321ZM39.0026 29.7289L42.9476 21.9322L46.8926 29.7354C44.7767 28.9035 41.1232 28.9 39.0026 29.7289Z" fill="white"/>
</svg>
