<svg width="55" height="55" viewBox="0 0 55 55" fill="none" xmlns="http://www.w3.org/2000/svg">
<path d="M29.5157 28.1767C30.6641 28.4443 31.8254 27.7283 32.0913 26.5653C32.217 26.0154 32.1077 25.471 31.8473 25.0178L32.8821 20.7833L34.1746 21.0998C34.4514 21.1672 34.744 21.0988 34.9633 20.9146C35.1828 20.7314 35.2997 20.4535 35.2799 20.1688L34.69 11.5208C34.6757 11.3123 34.5287 11.1363 34.3236 11.0857C34.1207 11.0365 33.9087 11.1243 33.7988 11.3034L29.2874 18.704C29.1384 18.9473 29.1152 19.2474 29.2232 19.5116C29.3345 19.7751 29.5608 19.9708 29.8397 20.0392L31.1316 20.3547L30.2545 23.9383L25.7433 22.9004L20.6605 15.4562C20.0529 14.5655 19.1472 14.5043 18.0618 14.5043C18.0618 26.6472 18.0618 25.8779 18.0618 31.3686H20.6408C20.6408 39.5706 20.6408 31.8899 20.6408 50.6188H15.4843V37.0598H13.606V50.6189H8.44944C8.44944 31.9447 8.44944 39.5503 8.44944 31.3687H11.027C11.027 25.8807 11.027 26.649 11.027 14.5045C9.78297 14.5045 8.76589 14.643 8.24847 15.7761L1.08381 31.4692C0.591673 32.5484 1.06595 33.8218 2.14797 34.3144C3.22111 34.8062 4.49859 34.3359 4.99354 33.2522L8.45494 25.6685V29.566H8.44944C7.45358 29.566 6.64701 30.373 6.64701 31.3687V50.6189C6.64701 51.6145 7.45369 52.4217 8.44944 52.4217C8.44944 53.8452 9.60324 55 11.027 55C12.45 55 13.606 53.8452 13.606 52.4217C13.9491 52.4217 14.271 52.3247 14.5459 52.1575C14.8193 52.3246 15.1391 52.4217 15.4843 52.4217C15.4843 53.8452 16.6381 55 18.0619 55C19.485 55 20.6409 53.8452 20.6409 52.4217C21.6367 52.4217 22.4433 51.6145 22.4433 50.6189V31.3687C22.4433 30.3729 21.6367 29.566 20.6409 29.566H20.6353V23.0389L22.6682 26.0171C22.9717 26.4638 23.4358 26.7793 23.9601 26.8996L29.5157 28.1767Z" fill="white"/>
<path d="M16.2608 14.5045H12.8315V21.754H16.2608V14.5045Z" fill="white"/>
<path d="M9.528 8.56964C9.55687 11.3184 11.7892 13.5382 14.5459 13.5382C17.3012 13.5382 19.5357 11.3184 19.5643 8.56964C20.5363 8.54369 21.3217 7.75554 21.3217 6.77508C21.3217 3.03935 18.2806 0 14.5459 0C10.8077 0 7.76804 3.03935 7.76804 6.77508C7.76804 7.75566 8.55405 8.54369 9.528 8.56964ZM10.9403 3.36636V3.87693C10.9403 4.37458 11.343 4.7782 11.8412 4.7782C12.3388 4.7782 12.7415 4.37458 12.7415 3.87693V2.15246C13.0313 2.04002 13.3314 1.95116 13.6436 1.89331V3.87693C13.6436 4.37458 14.0463 4.7782 14.546 4.7782C15.0422 4.7782 15.4467 4.37458 15.4467 3.87693V1.89331C15.7592 1.95116 16.0592 2.04002 16.347 2.15246V3.87693C16.347 4.37458 16.7496 4.7782 17.2493 4.7782C17.7468 4.7782 18.1516 4.37458 18.1516 3.87693V3.36636C18.9928 4.25707 19.5172 5.45143 19.5172 6.77508H9.57114C9.57114 5.45143 10.0962 4.25707 10.9403 3.36636Z" fill="white"/>
<path d="M38.7885 48.9185H27.6703C27.1706 48.9185 26.768 49.3212 26.768 49.8197V53.8494C26.768 54.3474 27.1706 54.7506 27.6703 54.7506H38.7885C39.284 54.7506 39.6886 54.3474 39.6886 53.8494V49.8197C39.6886 49.3212 39.284 48.9185 38.7885 48.9185Z" fill="white"/>
<path d="M53.2101 48.9185H42.0919C41.5923 48.9185 41.1897 49.3212 41.1897 49.8197V53.8494C41.1897 54.3474 41.5922 54.7506 42.0919 54.7506H53.2101C53.7057 54.7506 54.1104 54.3474 54.1104 53.8494V49.8197C54.1104 49.3212 53.7057 48.9185 53.2101 48.9185Z" fill="white"/>
<path d="M53.2101 34.4958H42.0919C41.5923 34.4958 41.1897 34.8995 41.1897 35.3975V39.4269C41.1897 39.9259 41.5922 40.3285 42.0919 40.3285H53.2101C53.7057 40.3285 54.1104 39.9259 54.1104 39.4269V35.3975C54.1104 34.8994 53.7057 34.4958 53.2101 34.4958Z" fill="white"/>
<path d="M38.7885 34.4958H27.6703C27.1706 34.4958 26.768 34.8995 26.768 35.3975V39.4269C26.768 39.9259 27.1706 40.3285 27.6703 40.3285H38.7885C39.284 40.3285 39.6886 39.9259 39.6886 39.4269V35.3975C39.6886 34.8994 39.284 34.4958 38.7885 34.4958Z" fill="white"/>
<path d="M33.9785 42.6084V46.6388C33.9785 47.1366 34.3811 47.5399 34.8808 47.5399H45.999C46.4952 47.5399 46.8999 47.1366 46.8999 46.6388V42.6084C46.8999 42.1104 46.4952 41.7068 45.999 41.7068H34.8808C34.3811 41.7068 33.9785 42.1104 33.9785 42.6084Z" fill="white"/>
<path d="M33.9785 28.1865V32.2158C33.9785 32.7149 34.3811 33.1174 34.8808 33.1174H45.999C46.4952 33.1174 46.8999 32.7149 46.8999 32.2158V28.1865C46.8999 27.6886 46.4952 27.285 45.999 27.285H34.8808C34.3811 27.285 33.9785 27.6886 33.9785 28.1865Z" fill="white"/>
<path d="M53.2102 41.7068H49.0004C48.5027 41.7068 48.1001 42.1104 48.1001 42.6084V46.6388C48.1001 47.1366 48.5026 47.5399 49.0004 47.5399H53.2102C53.7057 47.5399 54.1104 47.1366 54.1104 46.6388V42.6084C54.1104 42.1104 53.7057 41.7068 53.2102 41.7068Z" fill="white"/>
<path d="M53.2102 27.285H49.0004C48.5027 27.285 48.1001 27.6886 48.1001 28.1865V32.2158C48.1001 32.7149 48.5026 33.1174 49.0004 33.1174H53.2102C53.7057 33.1174 54.1104 32.7149 54.1104 32.2158V28.1865C54.1104 27.6886 53.7057 27.285 53.2102 27.285Z" fill="white"/>
</svg>
